<svg width="29" height="28" viewBox="0 0 29 28" fill="none" xmlns="http://www.w3.org/2000/svg">
<g id="Vector">
<path id="Vector_2" d="M8.7975 0H20.4525C24.8925 0 28.5 3.6075 28.5 8.0475V19.7025C28.5 21.8368 27.6521 23.8837 26.1429 25.3929C24.6337 26.9021 22.5868 27.75 20.4525 27.75H8.7975C4.3575 27.75 0.75 24.1425 0.75 19.7025V8.0475C0.75 5.91317 1.59786 3.86626 3.10706 2.35706C4.61626 0.847859 6.66317 0 8.7975 0ZM8.52 2.775C7.19524 2.775 5.92475 3.30126 4.988 4.238C4.05126 5.17475 3.525 6.44524 3.525 7.77V19.98C3.525 22.7411 5.75887 24.975 8.52 24.975H20.73C22.0548 24.975 23.3253 24.4487 24.262 23.512C25.1987 22.5753 25.725 21.3048 25.725 19.98V7.77C25.725 5.00887 23.4911 2.775 20.73 2.775H8.52ZM21.9094 4.85625C22.3694 4.85625 22.8105 5.03898 23.1358 5.36424C23.461 5.6895 23.6438 6.13064 23.6438 6.59063C23.6438 7.05061 23.461 7.49176 23.1358 7.81701C22.8105 8.14227 22.3694 8.325 21.9094 8.325C21.4494 8.325 21.0082 8.14227 20.683 7.81701C20.3577 7.49176 20.175 7.05061 20.175 6.59063C20.175 6.13064 20.3577 5.6895 20.683 5.36424C21.0082 5.03898 21.4494 4.85625 21.9094 4.85625ZM14.625 6.9375C16.4649 6.9375 18.2295 7.66841 19.5306 8.96945C20.8316 10.2705 21.5625 12.0351 21.5625 13.875C21.5625 15.7149 20.8316 17.4795 19.5306 18.7806C18.2295 20.0816 16.4649 20.8125 14.625 20.8125C12.7851 20.8125 11.0205 20.0816 9.71945 18.7806C8.41841 17.4795 7.6875 15.7149 7.6875 13.875C7.6875 12.0351 8.41841 10.2705 9.71945 8.96945C11.0205 7.66841 12.7851 6.9375 14.625 6.9375ZM14.625 9.7125C13.521 9.7125 12.4623 10.151 11.6817 10.9317C10.901 11.7123 10.4625 12.771 10.4625 13.875C10.4625 14.979 10.901 16.0377 11.6817 16.8183C12.4623 17.599 13.521 18.0375 14.625 18.0375C15.729 18.0375 16.7877 17.599 17.5683 16.8183C18.349 16.0377 18.7875 14.979 18.7875 13.875C18.7875 12.771 18.349 11.7123 17.5683 10.9317C16.7877 10.151 15.729 9.7125 14.625 9.7125Z" fill="white"/>
</g>
</svg>
