<svg width="20" height="20" viewBox="0 0 20 20" fill="none" xmlns="http://www.w3.org/2000/svg">
<g id="mdi:address-marker">
<path id="Vector" d="M9.99984 9.58366C9.4473 9.58366 8.9174 9.36417 8.5267 8.97347C8.136 8.58277 7.9165 8.05286 7.9165 7.50033C7.9165 6.94779 8.136 6.41789 8.5267 6.02719C8.9174 5.63649 9.4473 5.41699 9.99984 5.41699C10.5524 5.41699 11.0823 5.63649 11.473 6.02719C11.8637 6.41789 12.0832 6.94779 12.0832 7.50033C12.0832 7.77391 12.0293 8.04482 11.9246 8.29758C11.8199 8.55035 11.6664 8.78001 11.473 8.97347C11.2795 9.16692 11.0499 9.32038 10.7971 9.42508C10.5443 9.52977 10.2734 9.58366 9.99984 9.58366ZM9.99984 1.66699C8.45274 1.66699 6.96901 2.28157 5.87505 3.37554C4.78109 4.4695 4.1665 5.95323 4.1665 7.50033C4.1665 11.8753 9.99984 18.3337 9.99984 18.3337C9.99984 18.3337 15.8332 11.8753 15.8332 7.50033C15.8332 5.95323 15.2186 4.4695 14.1246 3.37554C13.0307 2.28157 11.5469 1.66699 9.99984 1.66699Z" fill="white"/>
</g>
</svg>
