<svg width="28" height="28" viewBox="0 0 28 28" fill="none" xmlns="http://www.w3.org/2000/svg">
<g id="Vector">
<path id="Vector_2" d="M21.9209 4.605C20.7441 3.43429 20.0955 1.9311 20.0957 0.375H14.7749V18.975C14.7347 19.9818 14.2471 20.9356 13.4151 21.6352C12.583 22.3349 11.4715 22.7256 10.3151 22.725C7.8699 22.725 5.83801 20.985 5.83801 18.825C5.83801 16.245 8.69643 14.31 11.6409 15.105V10.365C5.70026 9.675 0.5 13.695 0.5 18.825C0.5 23.82 5.25255 27.375 10.2978 27.375C15.7047 27.375 20.0957 23.55 20.0957 18.825V9.39C22.2532 10.7398 24.8437 11.464 27.5 11.46V6.825C27.5 6.825 24.2628 6.96 21.9209 4.605Z" fill="white"/>
</g>
</svg>
